<svg width="135" height="176" viewBox="0 0 135 176" fill="none" xmlns="http://www.w3.org/2000/svg">
<rect width="135" height="176" rx="12" fill="white"/>
<path d="M15.2325 21.76V24.97H19.2975V26.5825H15.2325V31H13.2075V20.155H20.0475V21.76H15.2325ZM23.3164 23.305V31H21.4564V23.305H23.3164ZM23.5714 21.0625C23.5714 21.2225 23.5389 21.3725 23.4739 21.5125C23.4089 21.6525 23.3214 21.775 23.2114 21.88C23.1064 21.985 22.9814 22.07 22.8364 22.135C22.6914 22.195 22.5364 22.225 22.3714 22.225C22.2114 22.225 22.0589 22.195 21.9139 22.135C21.7739 22.07 21.6514 21.985 21.5464 21.88C21.4414 21.775 21.3564 21.6525 21.2914 21.5125C21.2314 21.3725 21.2014 21.2225 21.2014 21.0625C21.2014 20.8975 21.2314 20.7425 21.2914 20.5975C21.3564 20.4525 21.4414 20.3275 21.5464 20.2225C21.6514 20.1175 21.7739 20.035 21.9139 19.975C22.0589 19.91 22.2114 19.8775 22.3714 19.8775C22.5364 19.8775 22.6914 19.91 22.8364 19.975C22.9814 20.035 23.1064 20.1175 23.2114 20.2225C23.3214 20.3275 23.4089 20.4525 23.4739 20.5975C23.5389 20.7425 23.5714 20.8975 23.5714 21.0625ZM26.9375 24.25C27.0925 24.095 27.255 23.9525 27.425 23.8225C27.6 23.6875 27.7825 23.575 27.9725 23.485C28.1675 23.39 28.375 23.3175 28.595 23.2675C28.815 23.2125 29.055 23.185 29.315 23.185C29.735 23.185 30.1075 23.2575 30.4325 23.4025C30.7575 23.5425 31.0275 23.7425 31.2425 24.0025C31.4625 24.2575 31.6275 24.565 31.7375 24.925C31.8525 25.28 31.91 25.6725 31.91 26.1025V31H30.0575V26.1025C30.0575 25.6325 29.95 25.27 29.735 25.015C29.52 24.755 29.1925 24.625 28.7525 24.625C28.4325 24.625 28.1325 24.6975 27.8525 24.8425C27.5725 24.9875 27.3075 25.185 27.0575 25.435V31H25.205V23.305H26.3375C26.5775 23.305 26.735 23.4175 26.81 23.6425L26.9375 24.25ZM38.5018 25.27C38.2918 25.015 38.0618 24.835 37.8118 24.73C37.5668 24.625 37.3018 24.5725 37.0168 24.5725C36.7368 24.5725 36.4843 24.625 36.2593 24.73C36.0343 24.835 35.8418 24.995 35.6818 25.21C35.5218 25.42 35.3993 25.69 35.3143 26.02C35.2293 26.345 35.1868 26.73 35.1868 27.175C35.1868 27.625 35.2218 28.0075 35.2918 28.3225C35.3668 28.6325 35.4718 28.8875 35.6068 29.0875C35.7418 29.2825 35.9068 29.425 36.1018 29.515C36.2968 29.6 36.5143 29.6425 36.7543 29.6425C37.1393 29.6425 37.4668 29.5625 37.7368 29.4025C38.0068 29.2425 38.2618 29.015 38.5018 28.72V25.27ZM40.3543 19.855V31H39.2218C38.9768 31 38.8218 30.8875 38.7568 30.6625L38.5993 29.92C38.2893 30.275 37.9318 30.5625 37.5268 30.7825C37.1268 31.0025 36.6593 31.1125 36.1243 31.1125C35.7043 31.1125 35.3193 31.025 34.9693 30.85C34.6193 30.675 34.3168 30.4225 34.0618 30.0925C33.8118 29.7575 33.6168 29.345 33.4768 28.855C33.3418 28.365 33.2743 27.805 33.2743 27.175C33.2743 26.605 33.3518 26.075 33.5068 25.585C33.6618 25.095 33.8843 24.67 34.1743 24.31C34.4643 23.95 34.8118 23.67 35.2168 23.47C35.6218 23.265 36.0768 23.1625 36.5818 23.1625C37.0118 23.1625 37.3793 23.23 37.6843 23.365C37.9893 23.5 38.2618 23.6825 38.5018 23.9125V19.855H40.3543ZM48.395 31.12C47.725 31.12 47.21 30.9325 46.85 30.5575C46.495 30.1775 46.3175 29.655 46.3175 28.99V24.6925H45.53C45.43 24.6925 45.345 24.66 45.275 24.595C45.205 24.53 45.17 24.4325 45.17 24.3025V23.5675L46.4075 23.365L46.7975 21.265C46.8225 21.165 46.87 21.0875 46.94 21.0325C47.01 20.9775 47.1 20.95 47.21 20.95H48.17V23.3725H50.225V24.6925H48.17V28.8625C48.17 29.1025 48.2275 29.29 48.3425 29.425C48.4625 29.56 48.625 29.6275 48.83 29.6275C48.945 29.6275 49.04 29.615 49.115 29.59C49.195 29.56 49.2625 29.53 49.3175 29.5C49.3775 29.47 49.43 29.4425 49.475 29.4175C49.52 29.3875 49.565 29.3725 49.61 29.3725C49.665 29.3725 49.71 29.3875 49.745 29.4175C49.78 29.4425 49.8175 29.4825 49.8575 29.5375L50.4125 30.4375C50.1425 30.6625 49.8325 30.8325 49.4825 30.9475C49.1325 31.0625 48.77 31.12 48.395 31.12ZM53.2636 24.13C53.5636 23.85 53.8936 23.6225 54.2536 23.4475C54.6136 23.2725 55.0361 23.185 55.5211 23.185C55.9411 23.185 56.3136 23.2575 56.6386 23.4025C56.9636 23.5425 57.2336 23.7425 57.4486 24.0025C57.6686 24.2575 57.8336 24.565 57.9436 24.925C58.0586 25.28 58.1161 25.6725 58.1161 26.1025V31H56.2636V26.1025C56.2636 25.6325 56.1561 25.27 55.9411 25.015C55.7261 24.755 55.3986 24.625 54.9586 24.625C54.6386 24.625 54.3386 24.6975 54.0586 24.8425C53.7786 24.9875 53.5136 25.185 53.2636 25.435V31H51.4111V19.855H53.2636V24.13ZM64.8354 26.2675C64.8354 26.0275 64.8004 25.8025 64.7304 25.5925C64.6654 25.3775 64.5654 25.19 64.4304 25.03C64.2954 24.87 64.1229 24.745 63.9129 24.655C63.7079 24.56 63.4679 24.5125 63.1929 24.5125C62.6579 24.5125 62.2354 24.665 61.9254 24.97C61.6204 25.275 61.4254 25.7075 61.3404 26.2675H64.8354ZM61.3029 27.385C61.3329 27.78 61.4029 28.1225 61.5129 28.4125C61.6229 28.6975 61.7679 28.935 61.9479 29.125C62.1279 29.31 62.3404 29.45 62.5854 29.545C62.8354 29.635 63.1104 29.68 63.4104 29.68C63.7104 29.68 63.9679 29.645 64.1829 29.575C64.4029 29.505 64.5929 29.4275 64.7529 29.3425C64.9179 29.2575 65.0604 29.18 65.1804 29.11C65.3054 29.04 65.4254 29.005 65.5404 29.005C65.6954 29.005 65.8104 29.0625 65.8854 29.1775L66.4179 29.8525C66.2129 30.0925 65.9829 30.295 65.7279 30.46C65.4729 30.62 65.2054 30.75 64.9254 30.85C64.6504 30.945 64.3679 31.0125 64.0779 31.0525C63.7929 31.0925 63.5154 31.1125 63.2454 31.1125C62.7104 31.1125 62.2129 31.025 61.7529 30.85C61.2929 30.67 60.8929 30.4075 60.5529 30.0625C60.2129 29.7125 59.9454 29.2825 59.7504 28.7725C59.5554 28.2575 59.4579 27.6625 59.4579 26.9875C59.4579 26.4625 59.5429 25.97 59.7129 25.51C59.8829 25.045 60.1254 24.6425 60.4404 24.3025C60.7604 23.9575 61.1479 23.685 61.6029 23.485C62.0629 23.285 62.5804 23.185 63.1554 23.185C63.6404 23.185 64.0879 23.2625 64.4979 23.4175C64.9079 23.5725 65.2604 23.8 65.5554 24.1C65.8504 24.395 66.0804 24.76 66.2454 25.195C66.4154 25.625 66.5004 26.1175 66.5004 26.6725C66.5004 26.9525 66.4704 27.1425 66.4104 27.2425C66.3504 27.3375 66.2354 27.385 66.0654 27.385H61.3029ZM73.3905 29.005C73.6005 29.26 73.828 29.44 74.073 29.545C74.323 29.65 74.5855 29.7025 74.8605 29.7025C75.1455 29.7025 75.4005 29.6525 75.6255 29.5525C75.8555 29.4475 76.0505 29.2875 76.2105 29.0725C76.3705 28.8525 76.493 28.575 76.578 28.24C76.663 27.9 76.7055 27.495 76.7055 27.025C76.7055 26.18 76.5655 25.57 76.2855 25.195C76.0055 24.815 75.603 24.625 75.078 24.625C74.723 24.625 74.413 24.7075 74.148 24.8725C73.883 25.0325 73.6305 25.26 73.3905 25.555V29.005ZM73.3905 24.25C73.7005 23.925 74.043 23.6675 74.418 23.4775C74.798 23.2825 75.2305 23.185 75.7155 23.185C76.1605 23.185 76.5605 23.2725 76.9155 23.4475C77.2755 23.6225 77.5805 23.875 77.8305 24.205C78.0855 24.53 78.2805 24.925 78.4155 25.39C78.5505 25.855 78.618 26.3775 78.618 26.9575C78.618 27.5825 78.5405 28.15 78.3855 28.66C78.2305 29.17 78.008 29.6075 77.718 29.9725C77.433 30.3325 77.088 30.6125 76.683 30.8125C76.278 31.0125 75.828 31.1125 75.333 31.1125C75.093 31.1125 74.8755 31.0875 74.6805 31.0375C74.4855 30.9925 74.3055 30.9275 74.1405 30.8425C73.9755 30.7575 73.823 30.655 73.683 30.535C73.548 30.41 73.418 30.2725 73.293 30.1225L73.2105 30.64C73.1805 30.77 73.128 30.8625 73.053 30.9175C72.983 30.9725 72.8855 31 72.7605 31H71.538V19.855H73.3905V24.25ZM85.0063 26.2675C85.0063 26.0275 84.9713 25.8025 84.9013 25.5925C84.8363 25.3775 84.7363 25.19 84.6013 25.03C84.4663 24.87 84.2938 24.745 84.0838 24.655C83.8788 24.56 83.6388 24.5125 83.3638 24.5125C82.8288 24.5125 82.4063 24.665 82.0963 24.97C81.7913 25.275 81.5963 25.7075 81.5113 26.2675H85.0063ZM81.4738 27.385C81.5038 27.78 81.5738 28.1225 81.6838 28.4125C81.7938 28.6975 81.9388 28.935 82.1188 29.125C82.2988 29.31 82.5113 29.45 82.7563 29.545C83.0063 29.635 83.2813 29.68 83.5813 29.68C83.8813 29.68 84.1388 29.645 84.3538 29.575C84.5738 29.505 84.7638 29.4275 84.9238 29.3425C85.0888 29.2575 85.2313 29.18 85.3513 29.11C85.4763 29.04 85.5963 29.005 85.7113 29.005C85.8663 29.005 85.9813 29.0625 86.0563 29.1775L86.5888 29.8525C86.3838 30.0925 86.1538 30.295 85.8988 30.46C85.6438 30.62 85.3763 30.75 85.0963 30.85C84.8213 30.945 84.5388 31.0125 84.2488 31.0525C83.9638 31.0925 83.6863 31.1125 83.4163 31.1125C82.8813 31.1125 82.3838 31.025 81.9238 30.85C81.4638 30.67 81.0638 30.4075 80.7238 30.0625C80.3838 29.7125 80.1163 29.2825 79.9213 28.7725C79.7263 28.2575 79.6288 27.6625 79.6288 26.9875C79.6288 26.4625 79.7138 25.97 79.8838 25.51C80.0538 25.045 80.2963 24.6425 80.6113 24.3025C80.9313 23.9575 81.3188 23.685 81.7738 23.485C82.2338 23.285 82.7513 23.185 83.3263 23.185C83.8113 23.185 84.2588 23.2625 84.6688 23.4175C85.0788 23.5725 85.4313 23.8 85.7263 24.1C86.0213 24.395 86.2513 24.76 86.4163 25.195C86.5863 25.625 86.6713 26.1175 86.6713 26.6725C86.6713 26.9525 86.6413 27.1425 86.5813 27.2425C86.5213 27.3375 86.4063 27.385 86.2363 27.385H81.4738ZM92.7565 24.805C92.7065 24.885 92.654 24.9425 92.599 24.9775C92.544 25.0075 92.474 25.0225 92.389 25.0225C92.299 25.0225 92.2015 24.9975 92.0965 24.9475C91.9965 24.8975 91.879 24.8425 91.744 24.7825C91.609 24.7175 91.454 24.66 91.279 24.61C91.109 24.56 90.9065 24.535 90.6715 24.535C90.3065 24.535 90.019 24.6125 89.809 24.7675C89.604 24.9225 89.5015 25.125 89.5015 25.375C89.5015 25.54 89.554 25.68 89.659 25.795C89.769 25.905 89.9115 26.0025 90.0865 26.0875C90.2665 26.1725 90.469 26.25 90.694 26.32C90.919 26.385 91.1465 26.4575 91.3765 26.5375C91.6115 26.6175 91.8415 26.71 92.0665 26.815C92.2915 26.915 92.4915 27.045 92.6665 27.205C92.8465 27.36 92.989 27.5475 93.094 27.7675C93.204 27.9875 93.259 28.2525 93.259 28.5625C93.259 28.9325 93.1915 29.275 93.0565 29.59C92.9265 29.9 92.7315 30.17 92.4715 30.4C92.2115 30.625 91.889 30.8025 91.504 30.9325C91.124 31.0575 90.684 31.12 90.184 31.12C89.919 31.12 89.659 31.095 89.404 31.045C89.154 31 88.9115 30.935 88.6765 30.85C88.4465 30.765 88.2315 30.665 88.0315 30.55C87.8365 30.435 87.664 30.31 87.514 30.175L87.9415 29.47C87.9965 29.385 88.0615 29.32 88.1365 29.275C88.2115 29.23 88.3065 29.2075 88.4215 29.2075C88.5365 29.2075 88.644 29.24 88.744 29.305C88.849 29.37 88.969 29.44 89.104 29.515C89.239 29.59 89.3965 29.66 89.5765 29.725C89.7615 29.79 89.994 29.8225 90.274 29.8225C90.494 29.8225 90.6815 29.7975 90.8365 29.7475C90.9965 29.6925 91.1265 29.6225 91.2265 29.5375C91.3315 29.4525 91.4065 29.355 91.4515 29.245C91.5015 29.13 91.5265 29.0125 91.5265 28.8925C91.5265 28.7125 91.4715 28.565 91.3615 28.45C91.2565 28.335 91.114 28.235 90.934 28.15C90.759 28.065 90.5565 27.99 90.3265 27.925C90.1015 27.855 89.869 27.78 89.629 27.7C89.394 27.62 89.1615 27.5275 88.9315 27.4225C88.7065 27.3125 88.504 27.175 88.324 27.01C88.149 26.845 88.0065 26.6425 87.8965 26.4025C87.7915 26.1625 87.739 25.8725 87.739 25.5325C87.739 25.2175 87.8015 24.9175 87.9265 24.6325C88.0515 24.3475 88.234 24.1 88.474 23.89C88.719 23.675 89.0215 23.505 89.3815 23.38C89.7465 23.25 90.1665 23.185 90.6415 23.185C91.1715 23.185 91.654 23.2725 92.089 23.4475C92.524 23.6225 92.8865 23.8525 93.1765 24.1375L92.7565 24.805ZM97.2183 31.12C96.5483 31.12 96.0333 30.9325 95.6733 30.5575C95.3183 30.1775 95.1408 29.655 95.1408 28.99V24.6925H94.3533C94.2533 24.6925 94.1683 24.66 94.0983 24.595C94.0283 24.53 93.9933 24.4325 93.9933 24.3025V23.5675L95.2308 23.365L95.6208 21.265C95.6458 21.165 95.6933 21.0875 95.7633 21.0325C95.8333 20.9775 95.9233 20.95 96.0333 20.95H96.9933V23.3725H99.0483V24.6925H96.9933V28.8625C96.9933 29.1025 97.0508 29.29 97.1658 29.425C97.2858 29.56 97.4483 29.6275 97.6533 29.6275C97.7683 29.6275 97.8633 29.615 97.9383 29.59C98.0183 29.56 98.0858 29.53 98.1408 29.5C98.2008 29.47 98.2533 29.4425 98.2983 29.4175C98.3433 29.3875 98.3883 29.3725 98.4333 29.3725C98.4883 29.3725 98.5333 29.3875 98.5683 29.4175C98.6033 29.4425 98.6408 29.4825 98.6808 29.5375L99.2358 30.4375C98.9658 30.6625 98.6558 30.8325 98.3058 30.9475C97.9558 31.0625 97.5933 31.12 97.2183 31.12ZM17.745 43.27C17.535 43.015 17.305 42.835 17.055 42.73C16.81 42.625 16.545 42.5725 16.26 42.5725C15.98 42.5725 15.7275 42.625 15.5025 42.73C15.2775 42.835 15.085 42.995 14.925 43.21C14.765 43.42 14.6425 43.69 14.5575 44.02C14.4725 44.345 14.43 44.73 14.43 45.175C14.43 45.625 14.465 46.0075 14.535 46.3225C14.61 46.6325 14.715 46.8875 14.85 47.0875C14.985 47.2825 15.15 47.425 15.345 47.515C15.54 47.6 15.7575 47.6425 15.9975 47.6425C16.3825 47.6425 16.71 47.5625 16.98 47.4025C17.25 47.2425 17.505 47.015 17.745 46.72V43.27ZM19.5975 37.855V49H18.465C18.22 49 18.065 48.8875 18 48.6625L17.8425 47.92C17.5325 48.275 17.175 48.5625 16.77 48.7825C16.37 49.0025 15.9025 49.1125 15.3675 49.1125C14.9475 49.1125 14.5625 49.025 14.2125 48.85C13.8625 48.675 13.56 48.4225 13.305 48.0925C13.055 47.7575 12.86 47.345 12.72 46.855C12.585 46.365 12.5175 45.805 12.5175 45.175C12.5175 44.605 12.595 44.075 12.75 43.585C12.905 43.095 13.1275 42.67 13.4175 42.31C13.7075 41.95 14.055 41.67 14.46 41.47C14.865 41.265 15.32 41.1625 15.825 41.1625C16.255 41.1625 16.6225 41.23 16.9275 41.365C17.2325 41.5 17.505 41.6825 17.745 41.9125V37.855H19.5975ZM24.8307 41.185C25.4007 41.185 25.9182 41.2775 26.3832 41.4625C26.8532 41.6475 27.2532 41.91 27.5832 42.25C27.9182 42.59 28.1757 43.005 28.3557 43.495C28.5357 43.985 28.6257 44.5325 28.6257 45.1375C28.6257 45.7475 28.5357 46.2975 28.3557 46.7875C28.1757 47.2775 27.9182 47.695 27.5832 48.04C27.2532 48.385 26.8532 48.65 26.3832 48.835C25.9182 49.02 25.4007 49.1125 24.8307 49.1125C24.2557 49.1125 23.7332 49.02 23.2632 48.835C22.7932 48.65 22.3907 48.385 22.0557 48.04C21.7257 47.695 21.4682 47.2775 21.2832 46.7875C21.1032 46.2975 21.0132 45.7475 21.0132 45.1375C21.0132 44.5325 21.1032 43.985 21.2832 43.495C21.4682 43.005 21.7257 42.59 22.0557 42.25C22.3907 41.91 22.7932 41.6475 23.2632 41.4625C23.7332 41.2775 24.2557 41.185 24.8307 41.185ZM24.8307 47.6875C25.4707 47.6875 25.9432 47.4725 26.2482 47.0425C26.5582 46.6125 26.7132 45.9825 26.7132 45.1525C26.7132 44.3225 26.5582 43.69 26.2482 43.255C25.9432 42.82 25.4707 42.6025 24.8307 42.6025C24.1807 42.6025 23.6982 42.8225 23.3832 43.2625C23.0732 43.6975 22.9182 44.3275 22.9182 45.1525C22.9182 45.9775 23.0732 46.6075 23.3832 47.0425C23.6982 47.4725 24.1807 47.6875 24.8307 47.6875ZM35.5515 42.9325C35.4965 43.0025 35.4415 43.0575 35.3865 43.0975C35.3365 43.1375 35.2615 43.1575 35.1615 43.1575C35.0665 43.1575 34.974 43.13 34.884 43.075C34.794 43.015 34.6865 42.95 34.5615 42.88C34.4365 42.805 34.2865 42.74 34.1115 42.685C33.9415 42.625 33.729 42.595 33.474 42.595C33.149 42.595 32.864 42.655 32.619 42.775C32.374 42.89 32.169 43.0575 32.004 43.2775C31.844 43.4975 31.724 43.765 31.644 44.08C31.564 44.39 31.524 44.7425 31.524 45.1375C31.524 45.5475 31.5665 45.9125 31.6515 46.2325C31.7415 46.5525 31.869 46.8225 32.034 47.0425C32.199 47.2575 32.399 47.4225 32.634 47.5375C32.869 47.6475 33.134 47.7025 33.429 47.7025C33.724 47.7025 33.9615 47.6675 34.1415 47.5975C34.3265 47.5225 34.4815 47.4425 34.6065 47.3575C34.7315 47.2675 34.839 47.1875 34.929 47.1175C35.024 47.0425 35.129 47.005 35.244 47.005C35.394 47.005 35.5065 47.0625 35.5815 47.1775L36.114 47.8525C35.909 48.0925 35.6865 48.295 35.4465 48.46C35.2065 48.62 34.9565 48.75 34.6965 48.85C34.4415 48.945 34.1765 49.0125 33.9015 49.0525C33.6315 49.0925 33.3615 49.1125 33.0915 49.1125C32.6165 49.1125 32.169 49.025 31.749 48.85C31.329 48.67 30.9615 48.41 30.6465 48.07C30.3315 47.73 30.0815 47.315 29.8965 46.825C29.7165 46.33 29.6265 45.7675 29.6265 45.1375C29.6265 44.5725 29.7065 44.05 29.8665 43.57C30.0315 43.085 30.2715 42.6675 30.5865 42.3175C30.9015 41.9625 31.2915 41.685 31.7565 41.485C32.2215 41.285 32.7565 41.185 33.3615 41.185C33.9365 41.185 34.439 41.2775 34.869 41.4625C35.304 41.6475 35.694 41.9125 36.039 42.2575L35.5515 42.9325ZM39.8404 49.12C39.1704 49.12 38.6554 48.9325 38.2954 48.5575C37.9404 48.1775 37.7629 47.655 37.7629 46.99V42.6925H36.9754C36.8754 42.6925 36.7904 42.66 36.7204 42.595C36.6504 42.53 36.6154 42.4325 36.6154 42.3025V41.5675L37.8529 41.365L38.2429 39.265C38.2679 39.165 38.3154 39.0875 38.3854 39.0325C38.4554 38.9775 38.5454 38.95 38.6554 38.95H39.6154V41.3725H41.6704V42.6925H39.6154V46.8625C39.6154 47.1025 39.6729 47.29 39.7879 47.425C39.9079 47.56 40.0704 47.6275 40.2754 47.6275C40.3904 47.6275 40.4854 47.615 40.5604 47.59C40.6404 47.56 40.7079 47.53 40.7629 47.5C40.8229 47.47 40.8754 47.4425 40.9204 47.4175C40.9654 47.3875 41.0104 47.3725 41.0554 47.3725C41.1104 47.3725 41.1554 47.3875 41.1904 47.4175C41.2254 47.4425 41.2629 47.4825 41.3029 47.5375L41.8579 48.4375C41.5879 48.6625 41.2779 48.8325 40.9279 48.9475C40.5779 49.0625 40.2154 49.12 39.8404 49.12ZM46.2028 41.185C46.7728 41.185 47.2903 41.2775 47.7553 41.4625C48.2253 41.6475 48.6253 41.91 48.9553 42.25C49.2903 42.59 49.5478 43.005 49.7278 43.495C49.9078 43.985 49.9978 44.5325 49.9978 45.1375C49.9978 45.7475 49.9078 46.2975 49.7278 46.7875C49.5478 47.2775 49.2903 47.695 48.9553 48.04C48.6253 48.385 48.2253 48.65 47.7553 48.835C47.2903 49.02 46.7728 49.1125 46.2028 49.1125C45.6278 49.1125 45.1053 49.02 44.6353 48.835C44.1653 48.65 43.7628 48.385 43.4278 48.04C43.0978 47.695 42.8403 47.2775 42.6553 46.7875C42.4753 46.2975 42.3853 45.7475 42.3853 45.1375C42.3853 44.5325 42.4753 43.985 42.6553 43.495C42.8403 43.005 43.0978 42.59 43.4278 42.25C43.7628 41.91 44.1653 41.6475 44.6353 41.4625C45.1053 41.2775 45.6278 41.185 46.2028 41.185ZM46.2028 47.6875C46.8428 47.6875 47.3153 47.4725 47.6203 47.0425C47.9303 46.6125 48.0853 45.9825 48.0853 45.1525C48.0853 44.3225 47.9303 43.69 47.6203 43.255C47.3153 42.82 46.8428 42.6025 46.2028 42.6025C45.5528 42.6025 45.0703 42.8225 44.7553 43.2625C44.4453 43.6975 44.2903 44.3275 44.2903 45.1525C44.2903 45.9775 44.4453 46.6075 44.7553 47.0425C45.0703 47.4725 45.5528 47.6875 46.2028 47.6875ZM53.1586 42.64C53.3986 42.18 53.6836 41.82 54.0136 41.56C54.3436 41.295 54.7336 41.1625 55.1836 41.1625C55.5386 41.1625 55.8236 41.24 56.0386 41.395L55.9186 42.7825C55.8936 42.8725 55.8561 42.9375 55.8061 42.9775C55.7611 43.0125 55.6986 43.03 55.6186 43.03C55.5436 43.03 55.4311 43.0175 55.2811 42.9925C55.1361 42.9675 54.9936 42.955 54.8536 42.955C54.6486 42.955 54.4661 42.985 54.3061 43.045C54.1461 43.105 54.0011 43.1925 53.8711 43.3075C53.7461 43.4175 53.6336 43.5525 53.5336 43.7125C53.4386 43.8725 53.3486 44.055 53.2636 44.26V49H51.4111V41.305H52.4986C52.6886 41.305 52.8211 41.34 52.8961 41.41C52.9711 41.475 53.0211 41.595 53.0461 41.77L53.1586 42.64ZM66.9411 41.305L62.7486 51.115C62.6936 51.245 62.6211 51.3425 62.5311 51.4075C62.4461 51.4775 62.3136 51.5125 62.1336 51.5125H60.7536L62.1936 48.4225L59.0811 41.305H60.7086C60.8536 41.305 60.9661 41.34 61.0461 41.41C61.1311 41.48 61.1936 41.56 61.2336 41.65L62.8686 45.64C62.9236 45.775 62.9686 45.91 63.0036 46.045C63.0436 46.18 63.0811 46.3175 63.1161 46.4575C63.1611 46.3175 63.2061 46.18 63.2511 46.045C63.2961 45.905 63.3461 45.7675 63.4011 45.6325L64.9461 41.65C64.9861 41.55 65.0511 41.4675 65.1411 41.4025C65.2361 41.3375 65.3411 41.305 65.4561 41.305H66.9411ZM71.0319 41.185C71.6019 41.185 72.1194 41.2775 72.5844 41.4625C73.0544 41.6475 73.4544 41.91 73.7844 42.25C74.1194 42.59 74.3769 43.005 74.5569 43.495C74.7369 43.985 74.8269 44.5325 74.8269 45.1375C74.8269 45.7475 74.7369 46.2975 74.5569 46.7875C74.3769 47.2775 74.1194 47.695 73.7844 48.04C73.4544 48.385 73.0544 48.65 72.5844 48.835C72.1194 49.02 71.6019 49.1125 71.0319 49.1125C70.4569 49.1125 69.9344 49.02 69.4644 48.835C68.9944 48.65 68.5919 48.385 68.2569 48.04C67.9269 47.695 67.6694 47.2775 67.4844 46.7875C67.3044 46.2975 67.2144 45.7475 67.2144 45.1375C67.2144 44.5325 67.3044 43.985 67.4844 43.495C67.6694 43.005 67.9269 42.59 68.2569 42.25C68.5919 41.91 68.9944 41.6475 69.4644 41.4625C69.9344 41.2775 70.4569 41.185 71.0319 41.185ZM71.0319 47.6875C71.6719 47.6875 72.1444 47.4725 72.4494 47.0425C72.7594 46.6125 72.9144 45.9825 72.9144 45.1525C72.9144 44.3225 72.7594 43.69 72.4494 43.255C72.1444 42.82 71.6719 42.6025 71.0319 42.6025C70.3819 42.6025 69.8994 42.8225 69.5844 43.2625C69.2744 43.6975 69.1194 44.3275 69.1194 45.1525C69.1194 45.9775 69.2744 46.6075 69.5844 47.0425C69.8994 47.4725 70.3819 47.6875 71.0319 47.6875ZM82.8702 41.305V49H81.7377C81.4927 49 81.3377 48.8875 81.2727 48.6625L81.1452 48.0475C80.8302 48.3675 80.4827 48.6275 80.1027 48.8275C79.7227 49.0225 79.2752 49.12 78.7602 49.12C78.3402 49.12 77.9677 49.05 77.6427 48.91C77.3227 48.765 77.0527 48.5625 76.8327 48.3025C76.6127 48.0425 76.4452 47.735 76.3302 47.38C76.2202 47.02 76.1652 46.625 76.1652 46.195V41.305H78.0177V46.195C78.0177 46.665 78.1252 47.03 78.3402 47.29C78.5602 47.545 78.8877 47.6725 79.3227 47.6725C79.6427 47.6725 79.9427 47.6025 80.2227 47.4625C80.5027 47.3175 80.7677 47.12 81.0177 46.87V41.305H82.8702ZM90.087 42.25C90.242 42.095 90.4045 41.9525 90.5745 41.8225C90.7495 41.6875 90.932 41.575 91.122 41.485C91.317 41.39 91.5245 41.3175 91.7445 41.2675C91.9645 41.2125 92.2045 41.185 92.4645 41.185C92.8845 41.185 93.257 41.2575 93.582 41.4025C93.907 41.5425 94.177 41.7425 94.392 42.0025C94.612 42.2575 94.777 42.565 94.887 42.925C95.002 43.28 95.0595 43.6725 95.0595 44.1025V49H93.207V44.1025C93.207 43.6325 93.0995 43.27 92.8845 43.015C92.6695 42.755 92.342 42.625 91.902 42.625C91.582 42.625 91.282 42.6975 91.002 42.8425C90.722 42.9875 90.457 43.185 90.207 43.435V49H88.3545V41.305H89.487C89.727 41.305 89.8845 41.4175 89.9595 41.6425L90.087 42.25ZM101.779 44.2675C101.779 44.0275 101.744 43.8025 101.674 43.5925C101.609 43.3775 101.509 43.19 101.374 43.03C101.239 42.87 101.066 42.745 100.856 42.655C100.651 42.56 100.411 42.5125 100.136 42.5125C99.6013 42.5125 99.1788 42.665 98.8688 42.97C98.5638 43.275 98.3688 43.7075 98.2838 44.2675H101.779ZM98.2463 45.385C98.2763 45.78 98.3463 46.1225 98.4563 46.4125C98.5663 46.6975 98.7113 46.935 98.8913 47.125C99.0713 47.31 99.2838 47.45 99.5288 47.545C99.7788 47.635 100.054 47.68 100.354 47.68C100.654 47.68 100.911 47.645 101.126 47.575C101.346 47.505 101.536 47.4275 101.696 47.3425C101.861 47.2575 102.004 47.18 102.124 47.11C102.249 47.04 102.369 47.005 102.484 47.005C102.639 47.005 102.754 47.0625 102.829 47.1775L103.361 47.8525C103.156 48.0925 102.926 48.295 102.671 48.46C102.416 48.62 102.149 48.75 101.869 48.85C101.594 48.945 101.311 49.0125 101.021 49.0525C100.736 49.0925 100.459 49.1125 100.189 49.1125C99.6538 49.1125 99.1563 49.025 98.6963 48.85C98.2363 48.67 97.8363 48.4075 97.4963 48.0625C97.1563 47.7125 96.8888 47.2825 96.6938 46.7725C96.4988 46.2575 96.4012 45.6625 96.4012 44.9875C96.4012 44.4625 96.4863 43.97 96.6563 43.51C96.8263 43.045 97.0688 42.6425 97.3838 42.3025C97.7038 41.9575 98.0913 41.685 98.5463 41.485C99.0063 41.285 99.5238 41.185 100.099 41.185C100.584 41.185 101.031 41.2625 101.441 41.4175C101.851 41.5725 102.204 41.8 102.499 42.1C102.794 42.395 103.024 42.76 103.189 43.195C103.359 43.625 103.444 44.1175 103.444 44.6725C103.444 44.9525 103.414 45.1425 103.354 45.2425C103.294 45.3375 103.179 45.385 103.009 45.385H98.2463ZM109.791 44.2675C109.791 44.0275 109.756 43.8025 109.686 43.5925C109.621 43.3775 109.521 43.19 109.386 43.03C109.251 42.87 109.079 42.745 108.869 42.655C108.664 42.56 108.424 42.5125 108.149 42.5125C107.614 42.5125 107.191 42.665 106.881 42.97C106.576 43.275 106.381 43.7075 106.296 44.2675H109.791ZM106.259 45.385C106.289 45.78 106.359 46.1225 106.469 46.4125C106.579 46.6975 106.724 46.935 106.904 47.125C107.084 47.31 107.296 47.45 107.541 47.545C107.791 47.635 108.066 47.68 108.366 47.68C108.666 47.68 108.924 47.645 109.139 47.575C109.359 47.505 109.549 47.4275 109.709 47.3425C109.874 47.2575 110.016 47.18 110.136 47.11C110.261 47.04 110.381 47.005 110.496 47.005C110.651 47.005 110.766 47.0625 110.841 47.1775L111.374 47.8525C111.169 48.0925 110.939 48.295 110.684 48.46C110.429 48.62 110.161 48.75 109.881 48.85C109.606 48.945 109.324 49.0125 109.034 49.0525C108.749 49.0925 108.471 49.1125 108.201 49.1125C107.666 49.1125 107.169 49.025 106.709 48.85C106.249 48.67 105.849 48.4075 105.509 48.0625C105.169 47.7125 104.901 47.2825 104.706 46.7725C104.511 46.2575 104.414 45.6625 104.414 44.9875C104.414 44.4625 104.499 43.97 104.669 43.51C104.839 43.045 105.081 42.6425 105.396 42.3025C105.716 41.9575 106.104 41.685 106.559 41.485C107.019 41.285 107.536 41.185 108.111 41.185C108.596 41.185 109.044 41.2625 109.454 41.4175C109.864 41.5725 110.216 41.8 110.511 42.1C110.806 42.395 111.036 42.76 111.201 43.195C111.371 43.625 111.456 44.1175 111.456 44.6725C111.456 44.9525 111.426 45.1425 111.366 45.2425C111.306 45.3375 111.191 45.385 111.021 45.385H106.259ZM117.677 43.27C117.467 43.015 117.237 42.835 116.987 42.73C116.742 42.625 116.477 42.5725 116.192 42.5725C115.912 42.5725 115.659 42.625 115.434 42.73C115.209 42.835 115.017 42.995 114.857 43.21C114.697 43.42 114.574 43.69 114.489 44.02C114.404 44.345 114.362 44.73 114.362 45.175C114.362 45.625 114.397 46.0075 114.467 46.3225C114.542 46.6325 114.647 46.8875 114.782 47.0875C114.917 47.2825 115.082 47.425 115.277 47.515C115.472 47.6 115.689 47.6425 115.929 47.6425C116.314 47.6425 116.642 47.5625 116.912 47.4025C117.182 47.2425 117.437 47.015 117.677 46.72V43.27ZM119.529 37.855V49H118.397C118.152 49 117.997 48.8875 117.932 48.6625L117.774 47.92C117.464 48.275 117.107 48.5625 116.702 48.7825C116.302 49.0025 115.834 49.1125 115.299 49.1125C114.879 49.1125 114.494 49.025 114.144 48.85C113.794 48.675 113.492 48.4225 113.237 48.0925C112.987 47.7575 112.792 47.345 112.652 46.855C112.517 46.365 112.449 45.805 112.449 45.175C112.449 44.605 112.527 44.075 112.682 43.585C112.837 43.095 113.059 42.67 113.349 42.31C113.639 41.95 113.987 41.67 114.392 41.47C114.797 41.265 115.252 41.1625 115.757 41.1625C116.187 41.1625 116.554 41.23 116.859 41.365C117.164 41.5 117.437 41.6825 117.677 41.9125V37.855H119.529Z" fill="#20274F"/>
<path d="M12 66C12 64.8954 12.8954 64 14 64H120C121.105 64 122 64.8954 122 66V91C122 92.1046 121.105 93 120 93H14C12.8954 93 12 92.1046 12 91V66Z" fill="#F8F8F8"/>
<path d="M33 86L29.6945 82.6886L33 86ZM31.5263 78.2632C31.5263 79.9243 30.8664 81.5173 29.6919 82.6919C28.5173 83.8664 26.9243 84.5263 25.2632 84.5263C23.6021 84.5263 22.009 83.8664 20.8344 82.6919C19.6599 81.5173 19 79.9243 19 78.2632C19 76.6021 19.6599 75.009 20.8344 73.8344C22.009 72.6599 23.6021 72 25.2632 72C26.9243 72 28.5173 72.6599 29.6919 73.8344C30.8664 75.009 31.5263 76.6021 31.5263 78.2632V78.2632Z" stroke="#20274F" stroke-linecap="round"/>
<path d="M49.038 76.3505C49.005 76.4055 48.9683 76.4477 48.928 76.477C48.8913 76.5027 48.8455 76.5155 48.7905 76.5155C48.7282 76.5155 48.6548 76.4843 48.5705 76.422C48.4862 76.3597 48.3798 76.2918 48.2515 76.2185C48.1268 76.1415 47.9747 76.0718 47.795 76.0095C47.619 75.9472 47.4045 75.916 47.1515 75.916C46.9132 75.916 46.7023 75.949 46.519 76.015C46.3393 76.0773 46.1872 76.1635 46.0625 76.2735C45.9415 76.3835 45.8498 76.5137 45.7875 76.664C45.7252 76.8107 45.694 76.9702 45.694 77.1425C45.694 77.3625 45.7472 77.5458 45.8535 77.6925C45.9635 77.8355 46.1065 77.9583 46.2825 78.061C46.4622 78.1637 46.6638 78.2535 46.8875 78.3305C47.1148 78.4038 47.3458 78.4808 47.5805 78.5615C47.8188 78.6422 48.0498 78.7338 48.2735 78.8365C48.5008 78.9355 48.7025 79.062 48.8785 79.216C49.0582 79.37 49.2012 79.5588 49.3075 79.7825C49.4175 80.0062 49.4725 80.2812 49.4725 80.6075C49.4725 80.9522 49.4138 81.2767 49.2965 81.581C49.1792 81.8817 49.0068 82.1438 48.7795 82.3675C48.5558 82.5912 48.279 82.7672 47.949 82.8955C47.6227 83.0238 47.2505 83.088 46.8325 83.088C46.3192 83.088 45.8535 82.9963 45.4355 82.813C45.0175 82.626 44.66 82.3748 44.363 82.0595L44.671 81.5535C44.7003 81.5132 44.7352 81.4802 44.7755 81.4545C44.8195 81.4252 44.8672 81.4105 44.9185 81.4105C44.9662 81.4105 45.0193 81.4307 45.078 81.471C45.1403 81.5077 45.21 81.5553 45.287 81.614C45.364 81.6727 45.452 81.7368 45.551 81.8065C45.65 81.8762 45.7618 81.9403 45.8865 81.999C46.0148 82.0577 46.1597 82.1072 46.321 82.1475C46.4823 82.1842 46.6638 82.2025 46.8655 82.2025C47.1185 82.2025 47.344 82.1677 47.542 82.098C47.74 82.0283 47.9068 81.9312 48.0425 81.8065C48.1818 81.6782 48.2882 81.526 48.3615 81.35C48.4348 81.174 48.4715 80.9778 48.4715 80.7615C48.4715 80.5232 48.4165 80.3288 48.3065 80.1785C48.2002 80.0245 48.059 79.8962 47.883 79.7935C47.707 79.6908 47.5053 79.6047 47.278 79.535C47.0507 79.4617 46.8197 79.3883 46.585 79.315C46.3503 79.238 46.1193 79.15 45.892 79.051C45.6647 78.952 45.463 78.8237 45.287 78.666C45.111 78.5083 44.968 78.3122 44.858 78.0775C44.7517 77.8392 44.6985 77.5458 44.6985 77.1975C44.6985 76.9188 44.7517 76.6493 44.858 76.389C44.968 76.1287 45.1257 75.8977 45.331 75.696C45.54 75.4943 45.7948 75.333 46.0955 75.212C46.3998 75.091 46.7482 75.0305 47.1405 75.0305C47.5805 75.0305 47.9802 75.1002 48.3395 75.2395C48.7025 75.3788 49.0215 75.5805 49.2965 75.8445L49.038 76.3505ZM54.4449 79.6065C54.4449 79.3792 54.4119 79.172 54.3459 78.985C54.2836 78.7943 54.1901 78.6312 54.0654 78.4955C53.9444 78.3562 53.7959 78.2498 53.6199 78.1765C53.4439 78.0995 53.2441 78.061 53.0204 78.061C52.5511 78.061 52.1789 78.1985 51.9039 78.4735C51.6326 78.7448 51.4639 79.1225 51.3979 79.6065H54.4449ZM55.2369 82.219C55.1159 82.3657 54.9711 82.494 54.8024 82.604C54.6338 82.7103 54.4523 82.7983 54.2579 82.868C54.0673 82.9377 53.8693 82.989 53.6639 83.022C53.4586 83.0587 53.2551 83.077 53.0534 83.077C52.6684 83.077 52.3128 83.0128 51.9864 82.8845C51.6638 82.7525 51.3833 82.5618 51.1449 82.3125C50.9103 82.0595 50.7269 81.7478 50.5949 81.3775C50.4629 81.0072 50.3969 80.5818 50.3969 80.1015C50.3969 79.7128 50.4556 79.3498 50.5729 79.0125C50.6939 78.6752 50.8663 78.3837 51.0899 78.138C51.3136 77.8887 51.5868 77.6943 51.9094 77.555C52.2321 77.412 52.5951 77.3405 52.9984 77.3405C53.3321 77.3405 53.6401 77.3973 53.9224 77.511C54.2084 77.621 54.4541 77.7823 54.6594 77.995C54.8684 78.204 55.0316 78.4643 55.1489 78.776C55.2663 79.084 55.3249 79.436 55.3249 79.832C55.3249 79.986 55.3084 80.0887 55.2754 80.14C55.2424 80.1913 55.1801 80.217 55.0884 80.217H51.3649C51.3759 80.569 51.4236 80.8752 51.5079 81.1355C51.5959 81.3958 51.7169 81.614 51.8709 81.79C52.0249 81.9623 52.2083 82.0925 52.4209 82.1805C52.6336 82.2648 52.8719 82.307 53.1359 82.307C53.3816 82.307 53.5924 82.2795 53.7684 82.2245C53.9481 82.1658 54.1021 82.1035 54.2304 82.0375C54.3588 81.9715 54.4651 81.911 54.5494 81.856C54.6374 81.7973 54.7126 81.768 54.7749 81.768C54.8556 81.768 54.9179 81.7992 54.9619 81.8615L55.2369 82.219ZM59.547 80.492C59.096 80.5067 58.711 80.5433 58.392 80.602C58.0766 80.657 57.8181 80.7303 57.6165 80.822C57.4185 80.9137 57.2736 81.0218 57.182 81.1465C57.094 81.2712 57.05 81.4105 57.05 81.5645C57.05 81.7112 57.0738 81.8377 57.1215 81.944C57.1691 82.0503 57.2333 82.1383 57.314 82.208C57.3983 82.274 57.4955 82.3235 57.6055 82.3565C57.7191 82.3858 57.8401 82.4005 57.9685 82.4005C58.1408 82.4005 58.2985 82.384 58.4415 82.351C58.5845 82.3143 58.7183 82.263 58.843 82.197C58.9713 82.131 59.0923 82.0522 59.206 81.9605C59.3233 81.8688 59.437 81.7643 59.547 81.647V80.492ZM56.3845 78.215C56.6925 77.918 57.0243 77.6962 57.38 77.5495C57.7356 77.4028 58.1298 77.3295 58.5625 77.3295C58.8741 77.3295 59.151 77.3808 59.393 77.4835C59.635 77.5862 59.8385 77.7292 60.0035 77.9125C60.1685 78.0958 60.2931 78.3177 60.3775 78.578C60.4618 78.8383 60.504 79.1243 60.504 79.436V83H60.0695C59.9741 83 59.9008 82.9853 59.8495 82.956C59.7981 82.923 59.7578 82.8607 59.7285 82.769L59.6185 82.241C59.4718 82.3767 59.3288 82.4977 59.1895 82.604C59.0501 82.7067 58.9035 82.7947 58.7495 82.868C58.5955 82.9377 58.4305 82.9908 58.2545 83.0275C58.0821 83.0678 57.8896 83.088 57.677 83.088C57.4606 83.088 57.2571 83.0587 57.0665 83C56.8758 82.9377 56.709 82.846 56.566 82.725C56.4266 82.604 56.3148 82.4518 56.2305 82.2685C56.1498 82.0815 56.1095 81.8615 56.1095 81.6085C56.1095 81.3885 56.17 81.1777 56.291 80.976C56.412 80.7707 56.6081 80.5892 56.8795 80.4315C57.1508 80.2738 57.5046 80.1455 57.941 80.0465C58.3773 79.9438 58.9126 79.8852 59.547 79.8705V79.436C59.547 79.0033 59.4535 78.677 59.2665 78.457C59.0795 78.2333 58.8063 78.1215 58.447 78.1215C58.205 78.1215 58.0015 78.1527 57.8365 78.215C57.6751 78.2737 57.534 78.3415 57.413 78.4185C57.2956 78.4918 57.193 78.5597 57.105 78.622C57.0206 78.6807 56.9363 78.71 56.852 78.71C56.786 78.71 56.7291 78.6935 56.6815 78.6605C56.6338 78.6238 56.5935 78.5798 56.5605 78.5285L56.3845 78.215ZM62.9247 78.545C63.1007 78.1637 63.3171 77.8667 63.5737 77.654C63.8304 77.4377 64.1439 77.3295 64.5142 77.3295C64.6316 77.3295 64.7434 77.3423 64.8497 77.368C64.9597 77.3937 65.0569 77.434 65.1412 77.489L65.0697 78.2205C65.0477 78.3122 64.9927 78.358 64.9047 78.358C64.8534 78.358 64.7782 78.347 64.6792 78.325C64.5802 78.303 64.4684 78.292 64.3437 78.292C64.1677 78.292 64.0101 78.3177 63.8707 78.369C63.7351 78.4203 63.6122 78.4973 63.5022 78.6C63.3959 78.699 63.2987 78.8237 63.2107 78.974C63.1264 79.1207 63.0494 79.2893 62.9797 79.48V83H61.9952V77.4285H62.5562C62.6626 77.4285 62.7359 77.4487 62.7762 77.489C62.8166 77.5293 62.8441 77.599 62.8587 77.698L62.9247 78.545ZM69.654 78.4185C69.6246 78.4588 69.5953 78.49 69.566 78.512C69.5366 78.534 69.4963 78.545 69.445 78.545C69.39 78.545 69.3295 78.523 69.2635 78.479C69.1975 78.4313 69.115 78.38 69.016 78.325C68.9206 78.27 68.8015 78.2205 68.6585 78.1765C68.5191 78.1288 68.3468 78.105 68.1415 78.105C67.8665 78.105 67.6245 78.1545 67.4155 78.2535C67.2065 78.3488 67.0305 78.4882 66.8875 78.6715C66.7481 78.8548 66.6418 79.0767 66.5685 79.337C66.4988 79.5973 66.464 79.8888 66.464 80.2115C66.464 80.5488 66.5025 80.8495 66.5795 81.1135C66.6565 81.3738 66.7646 81.5938 66.904 81.7735C67.047 81.9495 67.2175 82.0852 67.4155 82.1805C67.6171 82.2722 67.8426 82.318 68.092 82.318C68.3303 82.318 68.5265 82.2905 68.6805 82.2355C68.8345 82.1768 68.961 82.1127 69.06 82.043C69.1626 81.9733 69.247 81.911 69.313 81.856C69.3826 81.7973 69.4505 81.768 69.5165 81.768C69.5971 81.768 69.6595 81.7992 69.7035 81.8615L69.9785 82.219C69.8575 82.3693 69.72 82.4977 69.566 82.604C69.412 82.7103 69.2451 82.8002 69.0655 82.8735C68.8895 82.9432 68.7043 82.9945 68.51 83.0275C68.3156 83.0605 68.1176 83.077 67.916 83.077C67.5676 83.077 67.2431 83.0128 66.9425 82.8845C66.6455 82.7562 66.387 82.571 66.167 82.329C65.947 82.0833 65.7746 81.7827 65.65 81.427C65.5253 81.0713 65.463 80.6662 65.463 80.2115C65.463 79.7972 65.5198 79.414 65.6335 79.062C65.7508 78.71 65.9195 78.4075 66.1395 78.1545C66.3631 77.8978 66.6363 77.698 66.959 77.555C67.2853 77.412 67.6593 77.3405 68.081 77.3405C68.4733 77.3405 68.818 77.4047 69.115 77.533C69.4156 77.6577 69.6815 77.8355 69.9125 78.0665L69.654 78.4185ZM72.0139 78.171C72.2522 77.918 72.5162 77.7163 72.8059 77.566C73.0956 77.4157 73.4292 77.3405 73.8069 77.3405C74.1112 77.3405 74.3789 77.3918 74.6099 77.4945C74.8446 77.5935 75.0389 77.7365 75.1929 77.9235C75.3506 78.1068 75.4697 78.3287 75.5504 78.589C75.6311 78.8493 75.6714 79.1372 75.6714 79.4525V83H74.6869V79.4525C74.6869 79.0308 74.5897 78.7045 74.3954 78.4735C74.2047 78.2388 73.9132 78.1215 73.5209 78.1215C73.2312 78.1215 72.9599 78.1912 72.7069 78.3305C72.4576 78.4698 72.2266 78.6587 72.0139 78.897V83H71.0294V74.8985H72.0139V78.171ZM87.0396 79.062C87.0396 79.6523 86.9461 80.1895 86.7591 80.6735C86.5721 81.1575 86.3081 81.5718 85.9671 81.9165C85.6261 82.2612 85.2155 82.5288 84.7351 82.7195C84.2585 82.9065 83.7305 83 83.1511 83H80.2086V75.1185H83.1511C83.7305 75.1185 84.2585 75.2138 84.7351 75.4045C85.2155 75.5915 85.6261 75.8592 85.9671 76.2075C86.3081 76.5522 86.5721 76.9665 86.7591 77.4505C86.9461 77.9345 87.0396 78.4717 87.0396 79.062ZM85.9451 79.062C85.9451 78.578 85.8791 78.1453 85.7471 77.764C85.6151 77.3827 85.4281 77.06 85.1861 76.796C84.9441 76.532 84.6508 76.3303 84.3061 76.191C83.9615 76.0517 83.5765 75.982 83.1511 75.982H81.2756V82.1365H83.1511C83.5765 82.1365 83.9615 82.0668 84.3061 81.9275C84.6508 81.7882 84.9441 81.5883 85.1861 81.328C85.4281 81.064 85.6151 80.7413 85.7471 80.36C85.8791 79.9787 85.9451 79.546 85.9451 79.062ZM90.6191 77.3405C91.0261 77.3405 91.3928 77.4083 91.7191 77.544C92.0455 77.6797 92.3241 77.8722 92.5551 78.1215C92.7861 78.3708 92.9621 78.6733 93.0831 79.029C93.2078 79.381 93.2701 79.7752 93.2701 80.2115C93.2701 80.6515 93.2078 81.0475 93.0831 81.3995C92.9621 81.7515 92.7861 82.0522 92.5551 82.3015C92.3241 82.5508 92.0455 82.7433 91.7191 82.879C91.3928 83.011 91.0261 83.077 90.6191 83.077C90.2085 83.077 89.8381 83.011 89.5081 82.879C89.1818 82.7433 88.9031 82.5508 88.6721 82.3015C88.4411 82.0522 88.2633 81.7515 88.1386 81.3995C88.0176 81.0475 87.9571 80.6515 87.9571 80.2115C87.9571 79.7752 88.0176 79.381 88.1386 79.029C88.2633 78.6733 88.4411 78.3708 88.6721 78.1215C88.9031 77.8722 89.1818 77.6797 89.5081 77.544C89.8381 77.4083 90.2085 77.3405 90.6191 77.3405ZM90.6191 82.3125C91.1691 82.3125 91.5798 82.1292 91.8511 81.7625C92.1225 81.3922 92.2581 80.877 92.2581 80.217C92.2581 79.5533 92.1225 79.0363 91.8511 78.666C91.5798 78.2957 91.1691 78.1105 90.6191 78.1105C90.3405 78.1105 90.0966 78.1582 89.8876 78.2535C89.6823 78.3488 89.51 78.4863 89.3706 78.666C89.235 78.8457 89.1323 79.0675 89.0626 79.3315C88.9966 79.5918 88.9636 79.887 88.9636 80.217C88.9636 80.877 89.0993 81.3922 89.3706 81.7625C89.6456 82.1292 90.0618 82.3125 90.6191 82.3125ZM98.3893 78.4185C98.36 78.4588 98.3307 78.49 98.3013 78.512C98.272 78.534 98.2317 78.545 98.1803 78.545C98.1253 78.545 98.0648 78.523 97.9988 78.479C97.9328 78.4313 97.8503 78.38 97.7513 78.325C97.656 78.27 97.5368 78.2205 97.3938 78.1765C97.2545 78.1288 97.0822 78.105 96.8768 78.105C96.6018 78.105 96.3598 78.1545 96.1508 78.2535C95.9418 78.3488 95.7658 78.4882 95.6228 78.6715C95.4835 78.8548 95.3772 79.0767 95.3038 79.337C95.2342 79.5973 95.1993 79.8888 95.1993 80.2115C95.1993 80.5488 95.2378 80.8495 95.3148 81.1135C95.3918 81.3738 95.5 81.5938 95.6393 81.7735C95.7823 81.9495 95.9528 82.0852 96.1508 82.1805C96.3525 82.2722 96.578 82.318 96.8273 82.318C97.0657 82.318 97.2618 82.2905 97.4158 82.2355C97.5698 82.1768 97.6963 82.1127 97.7953 82.043C97.898 81.9733 97.9823 81.911 98.0483 81.856C98.118 81.7973 98.1858 81.768 98.2518 81.768C98.3325 81.768 98.3948 81.7992 98.4388 81.8615L98.7138 82.219C98.5928 82.3693 98.4553 82.4977 98.3013 82.604C98.1473 82.7103 97.9805 82.8002 97.8008 82.8735C97.6248 82.9432 97.4397 82.9945 97.2453 83.0275C97.051 83.0605 96.853 83.077 96.6513 83.077C96.303 83.077 95.9785 83.0128 95.6778 82.8845C95.3808 82.7562 95.1223 82.571 94.9023 82.329C94.6823 82.0833 94.51 81.7827 94.3853 81.427C94.2607 81.0713 94.1983 80.6662 94.1983 80.2115C94.1983 79.7972 94.2552 79.414 94.3688 79.062C94.4862 78.71 94.6548 78.4075 94.8748 78.1545C95.0985 77.8978 95.3717 77.698 95.6943 77.555C96.0207 77.412 96.3947 77.3405 96.8163 77.3405C97.2087 77.3405 97.5533 77.4047 97.8503 77.533C98.151 77.6577 98.4168 77.8355 98.6478 78.0665L98.3893 78.4185ZM101.475 83.088C101.035 83.088 100.696 82.9652 100.458 82.7195C100.223 82.4738 100.106 82.12 100.106 81.658V78.248H99.4348C99.3761 78.248 99.3266 78.2315 99.2863 78.1985C99.2459 78.1618 99.2258 78.1068 99.2258 78.0335V77.643L100.139 77.5275L100.364 75.806C100.375 75.751 100.399 75.707 100.436 75.674C100.476 75.6373 100.527 75.619 100.59 75.619H101.085V77.5385H102.696V78.248H101.085V81.592C101.085 81.8267 101.142 82.0008 101.255 82.1145C101.369 82.2282 101.516 82.285 101.695 82.285C101.798 82.285 101.886 82.2722 101.959 82.2465C102.036 82.2172 102.102 82.186 102.157 82.153C102.212 82.12 102.258 82.0907 102.295 82.065C102.335 82.0357 102.37 82.021 102.399 82.021C102.451 82.021 102.496 82.0522 102.537 82.1145L102.823 82.582C102.654 82.7397 102.451 82.8643 102.212 82.956C101.974 83.044 101.728 83.088 101.475 83.088ZM106.023 77.3405C106.43 77.3405 106.797 77.4083 107.123 77.544C107.45 77.6797 107.728 77.8722 107.959 78.1215C108.19 78.3708 108.366 78.6733 108.487 79.029C108.612 79.381 108.674 79.7752 108.674 80.2115C108.674 80.6515 108.612 81.0475 108.487 81.3995C108.366 81.7515 108.19 82.0522 107.959 82.3015C107.728 82.5508 107.45 82.7433 107.123 82.879C106.797 83.011 106.43 83.077 106.023 83.077C105.613 83.077 105.242 83.011 104.912 82.879C104.586 82.7433 104.307 82.5508 104.076 82.3015C103.845 82.0522 103.668 81.7515 103.543 81.3995C103.422 81.0475 103.361 80.6515 103.361 80.2115C103.361 79.7752 103.422 79.381 103.543 79.029C103.668 78.6733 103.845 78.3708 104.076 78.1215C104.307 77.8722 104.586 77.6797 104.912 77.544C105.242 77.4083 105.613 77.3405 106.023 77.3405ZM106.023 82.3125C106.573 82.3125 106.984 82.1292 107.255 81.7625C107.527 81.3922 107.662 80.877 107.662 80.217C107.662 79.5533 107.527 79.0363 107.255 78.666C106.984 78.2957 106.573 78.1105 106.023 78.1105C105.745 78.1105 105.501 78.1582 105.292 78.2535C105.087 78.3488 104.914 78.4863 104.775 78.666C104.639 78.8457 104.537 79.0675 104.467 79.3315C104.401 79.5918 104.368 79.887 104.368 80.217C104.368 80.877 104.504 81.3922 104.775 81.7625C105.05 82.1292 105.466 82.3125 106.023 82.3125ZM110.846 78.545C111.022 78.1637 111.238 77.8667 111.495 77.654C111.751 77.4377 112.065 77.3295 112.435 77.3295C112.552 77.3295 112.664 77.3423 112.771 77.368C112.881 77.3937 112.978 77.434 113.062 77.489L112.991 78.2205C112.969 78.3122 112.914 78.358 112.826 78.358C112.774 78.358 112.699 78.347 112.6 78.325C112.501 78.303 112.389 78.292 112.265 78.292C112.089 78.292 111.931 78.3177 111.792 78.369C111.656 78.4203 111.533 78.4973 111.423 78.6C111.317 78.699 111.22 78.8237 111.132 78.974C111.047 79.1207 110.97 79.2893 110.901 79.48V83H109.916V77.4285H110.477C110.583 77.4285 110.657 77.4487 110.697 77.489C110.737 77.5293 110.765 77.599 110.78 77.698L110.846 78.545Z" fill="#DEDEDE"/>
<path d="M12 102C12 100.895 12.8954 100 14 100H120C121.105 100 122 100.895 122 102V127C122 128.105 121.105 129 120 129H14C12.8954 129 12 128.105 12 127V102Z" fill="#F8F8F8"/>
<path d="M48.58 111.955C48.55 112.005 48.5167 112.043 48.48 112.07C48.4467 112.093 48.405 112.105 48.355 112.105C48.2983 112.105 48.2317 112.077 48.155 112.02C48.0783 111.963 47.9817 111.902 47.865 111.835C47.7517 111.765 47.6133 111.702 47.45 111.645C47.29 111.588 47.095 111.56 46.865 111.56C46.6483 111.56 46.4567 111.59 46.29 111.65C46.1267 111.707 45.9883 111.785 45.875 111.885C45.765 111.985 45.6817 112.103 45.625 112.24C45.5683 112.373 45.54 112.518 45.54 112.675C45.54 112.875 45.5883 113.042 45.685 113.175C45.785 113.305 45.915 113.417 46.075 113.51C46.2383 113.603 46.4217 113.685 46.625 113.755C46.8317 113.822 47.0417 113.892 47.255 113.965C47.4717 114.038 47.6817 114.122 47.885 114.215C48.0917 114.305 48.275 114.42 48.435 114.56C48.5983 114.7 48.7283 114.872 48.825 115.075C48.925 115.278 48.975 115.528 48.975 115.825C48.975 116.138 48.9217 116.433 48.815 116.71C48.7083 116.983 48.5517 117.222 48.345 117.425C48.1417 117.628 47.89 117.788 47.59 117.905C47.2933 118.022 46.955 118.08 46.575 118.08C46.1083 118.08 45.685 117.997 45.305 117.83C44.925 117.66 44.6 117.432 44.33 117.145L44.61 116.685C44.6367 116.648 44.6683 116.618 44.705 116.595C44.745 116.568 44.7883 116.555 44.835 116.555C44.8783 116.555 44.9267 116.573 44.98 116.61C45.0367 116.643 45.1 116.687 45.17 116.74C45.24 116.793 45.32 116.852 45.41 116.915C45.5 116.978 45.6017 117.037 45.715 117.09C45.8317 117.143 45.9633 117.188 46.11 117.225C46.2567 117.258 46.4217 117.275 46.605 117.275C46.835 117.275 47.04 117.243 47.22 117.18C47.4 117.117 47.5517 117.028 47.675 116.915C47.8017 116.798 47.8983 116.66 47.965 116.5C48.0317 116.34 48.065 116.162 48.065 115.965C48.065 115.748 48.015 115.572 47.915 115.435C47.8183 115.295 47.69 115.178 47.53 115.085C47.37 114.992 47.1867 114.913 46.98 114.85C46.7733 114.783 46.5633 114.717 46.35 114.65C46.1367 114.58 45.9267 114.5 45.72 114.41C45.5133 114.32 45.33 114.203 45.17 114.06C45.01 113.917 44.88 113.738 44.78 113.525C44.6833 113.308 44.635 113.042 44.635 112.725C44.635 112.472 44.6833 112.227 44.78 111.99C44.88 111.753 45.0233 111.543 45.21 111.36C45.4 111.177 45.6317 111.03 45.905 110.92C46.1817 110.81 46.4983 110.755 46.855 110.755C47.255 110.755 47.6183 110.818 47.945 110.945C48.275 111.072 48.565 111.255 48.815 111.495L48.58 111.955ZM53.4954 114.915C53.4954 114.708 53.4654 114.52 53.4054 114.35C53.3487 114.177 53.2637 114.028 53.1504 113.905C53.0404 113.778 52.9054 113.682 52.7454 113.615C52.5854 113.545 52.4037 113.51 52.2004 113.51C51.7737 113.51 51.4354 113.635 51.1854 113.885C50.9387 114.132 50.7854 114.475 50.7254 114.915H53.4954ZM54.2154 117.29C54.1054 117.423 53.9737 117.54 53.8204 117.64C53.6671 117.737 53.5021 117.817 53.3254 117.88C53.1521 117.943 52.9721 117.99 52.7854 118.02C52.5987 118.053 52.4137 118.07 52.2304 118.07C51.8804 118.07 51.5571 118.012 51.2604 117.895C50.9671 117.775 50.7121 117.602 50.4954 117.375C50.2821 117.145 50.1154 116.862 49.9954 116.525C49.8754 116.188 49.8154 115.802 49.8154 115.365C49.8154 115.012 49.8687 114.682 49.9754 114.375C50.0854 114.068 50.2421 113.803 50.4454 113.58C50.6487 113.353 50.8971 113.177 51.1904 113.05C51.4837 112.92 51.8137 112.855 52.1804 112.855C52.4837 112.855 52.7637 112.907 53.0204 113.01C53.2804 113.11 53.5037 113.257 53.6904 113.45C53.8804 113.64 54.0287 113.877 54.1354 114.16C54.2421 114.44 54.2954 114.76 54.2954 115.12C54.2954 115.26 54.2804 115.353 54.2504 115.4C54.2204 115.447 54.1637 115.47 54.0804 115.47H50.6954C50.7054 115.79 50.7487 116.068 50.8254 116.305C50.9054 116.542 51.0154 116.74 51.1554 116.9C51.2954 117.057 51.4621 117.175 51.6554 117.255C51.8487 117.332 52.0654 117.37 52.3054 117.37C52.5287 117.37 52.7204 117.345 52.8804 117.295C53.0437 117.242 53.1837 117.185 53.3004 117.125C53.4171 117.065 53.5137 117.01 53.5904 116.96C53.6704 116.907 53.7387 116.88 53.7954 116.88C53.8687 116.88 53.9254 116.908 53.9654 116.965L54.2154 117.29ZM56.9045 118.08C56.5045 118.08 56.1962 117.968 55.9795 117.745C55.7662 117.522 55.6595 117.2 55.6595 116.78V113.68H55.0495C54.9962 113.68 54.9512 113.665 54.9145 113.635C54.8779 113.602 54.8595 113.552 54.8595 113.485V113.13L55.6895 113.025L55.8945 111.46C55.9045 111.41 55.9262 111.37 55.9595 111.34C55.9962 111.307 56.0429 111.29 56.0995 111.29H56.5495V113.035H58.0145V113.68H56.5495V116.72C56.5495 116.933 56.6012 117.092 56.7045 117.195C56.8079 117.298 56.9412 117.35 57.1045 117.35C57.1979 117.35 57.2779 117.338 57.3445 117.315C57.4145 117.288 57.4745 117.26 57.5245 117.23C57.5745 117.2 57.6162 117.173 57.6495 117.15C57.6862 117.123 57.7179 117.11 57.7445 117.11C57.7912 117.11 57.8329 117.138 57.8695 117.195L58.1295 117.62C57.9762 117.763 57.7912 117.877 57.5745 117.96C57.3579 118.04 57.1345 118.08 56.9045 118.08ZM65.7671 117.185V118H61.7021V110.835H62.6671V117.185H65.7671ZM68.4025 112.855C68.7725 112.855 69.1058 112.917 69.4025 113.04C69.6992 113.163 69.9525 113.338 70.1625 113.565C70.3725 113.792 70.5325 114.067 70.6425 114.39C70.7558 114.71 70.8125 115.068 70.8125 115.465C70.8125 115.865 70.7558 116.225 70.6425 116.545C70.5325 116.865 70.3725 117.138 70.1625 117.365C69.9525 117.592 69.6992 117.767 69.4025 117.89C69.1058 118.01 68.7725 118.07 68.4025 118.07C68.0292 118.07 67.6925 118.01 67.3925 117.89C67.0958 117.767 66.8425 117.592 66.6325 117.365C66.4225 117.138 66.2608 116.865 66.1475 116.545C66.0375 116.225 65.9825 115.865 65.9825 115.465C65.9825 115.068 66.0375 114.71 66.1475 114.39C66.2608 114.067 66.4225 113.792 66.6325 113.565C66.8425 113.338 67.0958 113.163 67.3925 113.04C67.6925 112.917 68.0292 112.855 68.4025 112.855ZM68.4025 117.375C68.9025 117.375 69.2758 117.208 69.5225 116.875C69.7692 116.538 69.8925 116.07 69.8925 115.47C69.8925 114.867 69.7692 114.397 69.5225 114.06C69.2758 113.723 68.9025 113.555 68.4025 113.555C68.1492 113.555 67.9275 113.598 67.7375 113.685C67.5508 113.772 67.3942 113.897 67.2675 114.06C67.1442 114.223 67.0508 114.425 66.9875 114.665C66.9275 114.902 66.8975 115.17 66.8975 115.47C66.8975 116.07 67.0208 116.538 67.2675 116.875C67.5175 117.208 67.8958 117.375 68.4025 117.375ZM75.4663 113.835C75.4397 113.872 75.413 113.9 75.3863 113.92C75.3597 113.94 75.323 113.95 75.2763 113.95C75.2263 113.95 75.1713 113.93 75.1113 113.89C75.0513 113.847 74.9763 113.8 74.8863 113.75C74.7997 113.7 74.6913 113.655 74.5613 113.615C74.4347 113.572 74.278 113.55 74.0913 113.55C73.8413 113.55 73.6213 113.595 73.4313 113.685C73.2413 113.772 73.0813 113.898 72.9513 114.065C72.8247 114.232 72.728 114.433 72.6613 114.67C72.598 114.907 72.5663 115.172 72.5663 115.465C72.5663 115.772 72.6013 116.045 72.6713 116.285C72.7413 116.522 72.8397 116.722 72.9663 116.885C73.0963 117.045 73.2513 117.168 73.4313 117.255C73.6147 117.338 73.8197 117.38 74.0463 117.38C74.263 117.38 74.4413 117.355 74.5813 117.305C74.7213 117.252 74.8363 117.193 74.9263 117.13C75.0197 117.067 75.0963 117.01 75.1563 116.96C75.2197 116.907 75.2813 116.88 75.3413 116.88C75.4147 116.88 75.4713 116.908 75.5113 116.965L75.7613 117.29C75.6513 117.427 75.5263 117.543 75.3863 117.64C75.2463 117.737 75.0947 117.818 74.9313 117.885C74.7713 117.948 74.603 117.995 74.4263 118.025C74.2497 118.055 74.0697 118.07 73.8863 118.07C73.5697 118.07 73.2747 118.012 73.0013 117.895C72.7313 117.778 72.4963 117.61 72.2963 117.39C72.0963 117.167 71.9397 116.893 71.8263 116.57C71.713 116.247 71.6563 115.878 71.6563 115.465C71.6563 115.088 71.708 114.74 71.8113 114.42C71.918 114.1 72.0713 113.825 72.2713 113.595C72.4747 113.362 72.723 113.18 73.0163 113.05C73.313 112.92 73.653 112.855 74.0363 112.855C74.393 112.855 74.7063 112.913 74.9763 113.03C75.2497 113.143 75.4913 113.305 75.7013 113.515L75.4663 113.835ZM79.4617 115.72C79.0517 115.733 78.7017 115.767 78.4117 115.82C78.1251 115.87 77.8901 115.937 77.7067 116.02C77.5267 116.103 77.3951 116.202 77.3117 116.315C77.2317 116.428 77.1917 116.555 77.1917 116.695C77.1917 116.828 77.2134 116.943 77.2567 117.04C77.3001 117.137 77.3584 117.217 77.4317 117.28C77.5084 117.34 77.5967 117.385 77.6967 117.415C77.8001 117.442 77.9101 117.455 78.0267 117.455C78.1834 117.455 78.3267 117.44 78.4567 117.41C78.5867 117.377 78.7084 117.33 78.8217 117.27C78.9384 117.21 79.0484 117.138 79.1517 117.055C79.2584 116.972 79.3617 116.877 79.4617 116.77V115.72ZM76.5867 113.65C76.8667 113.38 77.1684 113.178 77.4917 113.045C77.8151 112.912 78.1734 112.845 78.5667 112.845C78.8501 112.845 79.1017 112.892 79.3217 112.985C79.5417 113.078 79.7267 113.208 79.8767 113.375C80.0267 113.542 80.1401 113.743 80.2167 113.98C80.2934 114.217 80.3317 114.477 80.3317 114.76V118H79.9367C79.8501 118 79.7834 117.987 79.7367 117.96C79.6901 117.93 79.6534 117.873 79.6267 117.79L79.5267 117.31C79.3934 117.433 79.2634 117.543 79.1367 117.64C79.0101 117.733 78.8767 117.813 78.7367 117.88C78.5967 117.943 78.4467 117.992 78.2867 118.025C78.1301 118.062 77.9551 118.08 77.7617 118.08C77.5651 118.08 77.3801 118.053 77.2067 118C77.0334 117.943 76.8817 117.86 76.7517 117.75C76.6251 117.64 76.5234 117.502 76.4467 117.335C76.3734 117.165 76.3367 116.965 76.3367 116.735C76.3367 116.535 76.3917 116.343 76.5017 116.16C76.6117 115.973 76.7901 115.808 77.0367 115.665C77.2834 115.522 77.6051 115.405 78.0017 115.315C78.3984 115.222 78.8851 115.168 79.4617 115.155V114.76C79.4617 114.367 79.3767 114.07 79.2067 113.87C79.0367 113.667 78.7884 113.565 78.4617 113.565C78.2417 113.565 78.0567 113.593 77.9067 113.65C77.7601 113.703 77.6317 113.765 77.5217 113.835C77.4151 113.902 77.3217 113.963 77.2417 114.02C77.1651 114.073 77.0884 114.1 77.0117 114.1C76.9517 114.1 76.9001 114.085 76.8567 114.055C76.8134 114.022 76.7767 113.982 76.7467 113.935L76.5867 113.65ZM86.3191 118H85.4291V113.68H82.8191V116.72C82.8191 116.933 82.8707 117.092 82.9741 117.195C83.0774 117.298 83.2107 117.35 83.3741 117.35C83.4674 117.35 83.5474 117.338 83.6141 117.315C83.6841 117.288 83.7441 117.26 83.7941 117.23C83.8441 117.2 83.8857 117.173 83.9191 117.15C83.9557 117.123 83.9874 117.11 84.0141 117.11C84.0607 117.11 84.1024 117.138 84.1391 117.195L84.3991 117.62C84.2457 117.763 84.0607 117.877 83.8441 117.96C83.6274 118.04 83.4041 118.08 83.1741 118.08C82.7741 118.08 82.4657 117.968 82.2491 117.745C82.0357 117.522 81.9291 117.2 81.9291 116.78V113.68H81.3191C81.2657 113.68 81.2207 113.665 81.1841 113.635C81.1474 113.602 81.1291 113.552 81.1291 113.485V113.13L81.9591 113.02L82.1641 111.46C82.1741 111.41 82.1957 111.37 82.2291 111.34C82.2657 111.307 82.3124 111.29 82.3691 111.29H82.8191V113.035H86.3191V118ZM86.5391 111.31C86.5391 111.397 86.5207 111.478 86.4841 111.555C86.4507 111.628 86.4041 111.693 86.3441 111.75C86.2874 111.807 86.2207 111.852 86.1441 111.885C86.0674 111.918 85.9857 111.935 85.8991 111.935C85.8124 111.935 85.7307 111.918 85.6541 111.885C85.5807 111.852 85.5157 111.807 85.4591 111.75C85.4024 111.693 85.3574 111.628 85.3241 111.555C85.2907 111.478 85.2741 111.397 85.2741 111.31C85.2741 111.223 85.2907 111.142 85.3241 111.065C85.3574 110.985 85.4024 110.917 85.4591 110.86C85.5157 110.8 85.5807 110.753 85.6541 110.72C85.7307 110.687 85.8124 110.67 85.8991 110.67C85.9857 110.67 86.0674 110.687 86.1441 110.72C86.2207 110.753 86.2874 110.8 86.3441 110.86C86.4041 110.917 86.4507 110.985 86.4841 111.065C86.5207 111.142 86.5391 111.223 86.5391 111.31ZM89.9162 112.855C90.2862 112.855 90.6195 112.917 90.9162 113.04C91.2128 113.163 91.4662 113.338 91.6762 113.565C91.8862 113.792 92.0462 114.067 92.1562 114.39C92.2695 114.71 92.3262 115.068 92.3262 115.465C92.3262 115.865 92.2695 116.225 92.1562 116.545C92.0462 116.865 91.8862 117.138 91.6762 117.365C91.4662 117.592 91.2128 117.767 90.9162 117.89C90.6195 118.01 90.2862 118.07 89.9162 118.07C89.5428 118.07 89.2062 118.01 88.9062 117.89C88.6095 117.767 88.3562 117.592 88.1462 117.365C87.9362 117.138 87.7745 116.865 87.6612 116.545C87.5512 116.225 87.4962 115.865 87.4962 115.465C87.4962 115.068 87.5512 114.71 87.6612 114.39C87.7745 114.067 87.9362 113.792 88.1462 113.565C88.3562 113.338 88.6095 113.163 88.9062 113.04C89.2062 112.917 89.5428 112.855 89.9162 112.855ZM89.9162 117.375C90.4162 117.375 90.7895 117.208 91.0362 116.875C91.2828 116.538 91.4062 116.07 91.4062 115.47C91.4062 114.867 91.2828 114.397 91.0362 114.06C90.7895 113.723 90.4162 113.555 89.9162 113.555C89.6628 113.555 89.4412 113.598 89.2512 113.685C89.0645 113.772 88.9078 113.897 88.7812 114.06C88.6578 114.223 88.5645 114.425 88.5012 114.665C88.4412 114.902 88.4112 115.17 88.4112 115.47C88.4112 116.07 88.5345 116.538 88.7812 116.875C89.0312 117.208 89.4095 117.375 89.9162 117.375ZM94.295 113.67C94.405 113.547 94.5217 113.435 94.645 113.335C94.7683 113.235 94.8983 113.15 95.035 113.08C95.175 113.007 95.3217 112.952 95.475 112.915C95.6317 112.875 95.8 112.855 95.98 112.855C96.2567 112.855 96.5 112.902 96.71 112.995C96.9233 113.085 97.1 113.215 97.24 113.385C97.3833 113.552 97.4917 113.753 97.565 113.99C97.6383 114.227 97.675 114.488 97.675 114.775V118H96.78V114.775C96.78 114.392 96.6917 114.095 96.515 113.885C96.3417 113.672 96.0767 113.565 95.72 113.565C95.4567 113.565 95.21 113.628 94.98 113.755C94.7533 113.882 94.5433 114.053 94.35 114.27V118H93.455V112.935H93.99C94.1167 112.935 94.195 112.997 94.225 113.12L94.295 113.67Z" fill="#DEDEDE"/>
<path d="M26.5 114.938C27.8462 114.938 28.9375 113.846 28.9375 112.5C28.9375 111.154 27.8462 110.062 26.5 110.062C25.1538 110.062 24.0625 111.154 24.0625 112.5C24.0625 113.846 25.1538 114.938 26.5 114.938Z" stroke="#20274F" stroke-linecap="round" stroke-linejoin="round"/>
<path d="M26.5 106C24.7761 106 23.1228 106.685 21.9038 107.904C20.6848 109.123 20 110.776 20 112.5C20 114.037 20.3266 115.043 21.2188 116.156L26.5 122.25L31.7812 116.156C32.6734 115.043 33 114.037 33 112.5C33 110.776 32.3152 109.123 31.0962 107.904C29.8772 106.685 28.2239 106 26.5 106V106Z" stroke="#20274F" stroke-linecap="round" stroke-linejoin="round"/>
<rect x="12" y="136" width="110" height="26" rx="3" fill="#3450D4"/>
<path d="M52.44 145.586C52.3933 145.665 52.3443 145.724 52.293 145.761C52.2417 145.798 52.1763 145.817 52.097 145.817C52.013 145.817 51.9173 145.78 51.81 145.705C51.7027 145.626 51.5673 145.539 51.404 145.446C51.2453 145.348 51.054 145.262 50.83 145.187C50.606 145.108 50.3377 145.068 50.025 145.068C49.731 145.068 49.472 145.108 49.248 145.187C49.0287 145.262 48.8443 145.367 48.695 145.502C48.5457 145.633 48.4313 145.789 48.352 145.971C48.2773 146.148 48.24 146.342 48.24 146.552C48.24 146.823 48.3077 147.047 48.443 147.224C48.583 147.401 48.765 147.553 48.989 147.679C49.213 147.805 49.4673 147.915 49.752 148.008C50.0367 148.101 50.3283 148.199 50.627 148.302C50.9257 148.4 51.2173 148.514 51.502 148.645C51.7867 148.776 52.041 148.941 52.265 149.142C52.489 149.338 52.6687 149.581 52.804 149.87C52.944 150.155 53.014 150.505 53.014 150.92C53.014 151.363 52.937 151.779 52.783 152.166C52.6337 152.553 52.4143 152.892 52.125 153.181C51.8357 153.47 51.4787 153.699 51.054 153.867C50.634 154.03 50.1557 154.112 49.619 154.112C49.297 154.112 48.9843 154.079 48.681 154.014C48.3777 153.953 48.0907 153.867 47.82 153.755C47.5493 153.638 47.295 153.501 47.057 153.342C46.8237 153.179 46.6137 152.997 46.427 152.796L46.854 152.082C46.896 152.026 46.945 151.979 47.001 151.942C47.0617 151.905 47.1293 151.886 47.204 151.886C47.302 151.886 47.414 151.937 47.54 152.04C47.6707 152.143 47.8293 152.257 48.016 152.383C48.2073 152.504 48.4337 152.616 48.695 152.719C48.961 152.822 49.283 152.873 49.661 152.873C49.969 152.873 50.2443 152.833 50.487 152.754C50.7297 152.67 50.9327 152.553 51.096 152.404C51.264 152.25 51.3923 152.066 51.481 151.851C51.5697 151.636 51.614 151.398 51.614 151.137C51.614 150.843 51.5463 150.603 51.411 150.416C51.2757 150.229 51.096 150.073 50.872 149.947C50.648 149.821 50.3937 149.714 50.109 149.625C49.8243 149.536 49.5327 149.445 49.234 149.352C48.9353 149.254 48.6437 149.142 48.359 149.016C48.0743 148.89 47.82 148.727 47.596 148.526C47.372 148.321 47.1923 148.066 47.057 147.763C46.9217 147.455 46.854 147.077 46.854 146.629C46.854 146.27 46.924 145.922 47.064 145.586C47.204 145.25 47.407 144.954 47.673 144.697C47.9437 144.436 48.275 144.228 48.667 144.074C49.059 143.915 49.507 143.836 50.011 143.836C50.5757 143.836 51.0937 143.927 51.565 144.109C52.041 144.286 52.454 144.543 52.804 144.879L52.44 145.586ZM59.2442 149.653C59.2442 149.382 59.2046 149.133 59.1252 148.904C59.0506 148.675 58.9386 148.477 58.7892 148.309C58.6399 148.141 58.4579 148.01 58.2432 147.917C58.0286 147.824 57.7812 147.777 57.5012 147.777C56.9272 147.777 56.4746 147.943 56.1432 148.274C55.8166 148.605 55.6089 149.065 55.5202 149.653H59.2442ZM60.3712 152.985C60.2032 153.181 60.0096 153.351 59.7902 153.496C59.5709 153.636 59.3376 153.75 59.0902 153.839C58.8429 153.928 58.5862 153.993 58.3202 154.035C58.0589 154.077 57.7999 154.098 57.5432 154.098C57.0532 154.098 56.5982 154.016 56.1782 153.853C55.7629 153.685 55.4012 153.442 55.0932 153.125C54.7899 152.803 54.5519 152.406 54.3792 151.935C54.2112 151.459 54.1272 150.913 54.1272 150.297C54.1272 149.802 54.2042 149.343 54.3582 148.918C54.5122 148.489 54.7316 148.115 55.0162 147.798C55.3056 147.481 55.6579 147.231 56.0732 147.049C56.4886 146.867 56.9552 146.776 57.4732 146.776C57.9072 146.776 58.3062 146.848 58.6702 146.993C59.0389 147.133 59.3562 147.338 59.6222 147.609C59.8882 147.88 60.0959 148.213 60.2452 148.61C60.3992 149.007 60.4762 149.459 60.4762 149.968C60.4762 150.178 60.4529 150.32 60.4062 150.395C60.3596 150.465 60.2732 150.5 60.1472 150.5H55.4852C55.4992 150.925 55.5599 151.296 55.6672 151.613C55.7746 151.926 55.9216 152.187 56.1082 152.397C56.2996 152.607 56.5259 152.763 56.7872 152.866C57.0486 152.969 57.3402 153.02 57.6622 153.02C57.9656 153.02 58.2269 152.985 58.4462 152.915C58.6702 152.845 58.8616 152.77 59.0202 152.691C59.1836 152.607 59.3189 152.53 59.4262 152.46C59.5382 152.39 59.6362 152.355 59.7202 152.355C59.8322 152.355 59.9186 152.397 59.9792 152.481L60.3712 152.985ZM65.7654 150.843C65.21 150.862 64.7387 150.906 64.3514 150.976C63.964 151.041 63.649 151.13 63.4064 151.242C63.1637 151.354 62.9887 151.487 62.8814 151.641C62.774 151.79 62.7204 151.958 62.7204 152.145C62.7204 152.322 62.7484 152.476 62.8044 152.607C62.865 152.733 62.9444 152.838 63.0424 152.922C63.145 153.001 63.264 153.06 63.3994 153.097C63.5347 153.134 63.6817 153.153 63.8404 153.153C64.0504 153.153 64.2417 153.132 64.4144 153.09C64.5917 153.048 64.7574 152.99 64.9114 152.915C65.0654 152.836 65.2124 152.74 65.3524 152.628C65.4924 152.516 65.63 152.388 65.7654 152.243V150.843ZM61.7614 147.882C62.158 147.504 62.5874 147.222 63.0494 147.035C63.516 146.848 64.027 146.755 64.5824 146.755C64.9884 146.755 65.3477 146.823 65.6604 146.958C65.973 147.089 66.2367 147.273 66.4514 147.511C66.666 147.749 66.827 148.034 66.9344 148.365C67.0464 148.696 67.1024 149.063 67.1024 149.464V154H66.4934C66.358 154 66.2554 153.979 66.1854 153.937C66.1154 153.89 66.0594 153.806 66.0174 153.685L65.8704 153.062C65.6884 153.23 65.5087 153.379 65.3314 153.51C65.154 153.636 64.9674 153.746 64.7714 153.839C64.58 153.928 64.3747 153.995 64.1554 154.042C63.936 154.089 63.6934 154.112 63.4274 154.112C63.1474 154.112 62.8837 154.075 62.6364 154C62.3937 153.921 62.1814 153.802 61.9994 153.643C61.8174 153.484 61.6727 153.286 61.5654 153.048C61.4627 152.81 61.4114 152.532 61.4114 152.215C61.4114 151.935 61.486 151.667 61.6354 151.41C61.7894 151.149 62.0367 150.915 62.3774 150.71C62.7227 150.505 63.1707 150.337 63.7214 150.206C64.2767 150.075 64.958 150.001 65.7654 149.982V149.464C65.7654 148.927 65.651 148.526 65.4224 148.26C65.1937 147.994 64.8577 147.861 64.4144 147.861C64.1157 147.861 63.8637 147.898 63.6584 147.973C63.4577 148.048 63.2827 148.132 63.1334 148.225C62.9887 148.314 62.8604 148.395 62.7484 148.47C62.641 148.545 62.529 148.582 62.4124 148.582C62.319 148.582 62.2374 148.556 62.1674 148.505C62.102 148.454 62.0484 148.393 62.0064 148.323L61.7614 147.882ZM70.2177 148.253C70.4464 147.786 70.7217 147.42 71.0437 147.154C71.3657 146.888 71.753 146.755 72.2057 146.755C72.3597 146.755 72.5044 146.774 72.6397 146.811C72.7797 146.844 72.901 146.895 73.0037 146.965L72.9127 147.994C72.88 148.12 72.803 148.183 72.6817 148.183C72.6164 148.183 72.5184 148.171 72.3877 148.148C72.257 148.12 72.117 148.106 71.9677 148.106C71.7484 148.106 71.5547 148.139 71.3867 148.204C71.2187 148.265 71.067 148.358 70.9317 148.484C70.801 148.605 70.6844 148.757 70.5817 148.939C70.479 149.116 70.3834 149.319 70.2947 149.548V154H68.9297V146.888H69.7137C69.863 146.888 69.9634 146.916 70.0147 146.972C70.0707 147.023 70.1104 147.117 70.1337 147.252L70.2177 148.253ZM78.7809 148.218C78.7389 148.269 78.6969 148.311 78.6549 148.344C78.6176 148.372 78.5616 148.386 78.4869 148.386C78.4122 148.386 78.3329 148.358 78.2489 148.302C78.1696 148.241 78.0669 148.178 77.9409 148.113C77.8196 148.043 77.6702 147.98 77.4929 147.924C77.3202 147.863 77.1056 147.833 76.8489 147.833C76.5129 147.833 76.2166 147.894 75.9599 148.015C75.7032 148.136 75.4886 148.309 75.3159 148.533C75.1479 148.757 75.0196 149.03 74.9309 149.352C74.8422 149.674 74.7979 150.036 74.7979 150.437C74.7979 150.852 74.8446 151.223 74.9379 151.55C75.0312 151.872 75.1642 152.145 75.3369 152.369C75.5096 152.588 75.7196 152.756 75.9669 152.873C76.2142 152.985 76.4896 153.041 76.7929 153.041C77.0869 153.041 77.3296 153.006 77.5209 152.936C77.7122 152.861 77.8709 152.782 77.9969 152.698C78.1229 152.614 78.2279 152.537 78.3119 152.467C78.3959 152.392 78.4822 152.355 78.5709 152.355C78.6829 152.355 78.7692 152.397 78.8299 152.481L79.2219 152.985C79.0586 153.186 78.8742 153.356 78.6689 153.496C78.4682 153.636 78.2536 153.75 78.0249 153.839C77.7962 153.928 77.5559 153.993 77.3039 154.035C77.0566 154.077 76.8046 154.098 76.5479 154.098C76.1046 154.098 75.6892 154.016 75.3019 153.853C74.9192 153.69 74.5856 153.452 74.3009 153.139C74.0209 152.826 73.7992 152.444 73.6359 151.991C73.4726 151.534 73.3909 151.016 73.3909 150.437C73.3909 149.91 73.4632 149.422 73.6079 148.974C73.7572 148.526 73.9742 148.141 74.2589 147.819C74.5482 147.492 74.9029 147.238 75.3229 147.056C75.7429 146.869 76.2236 146.776 76.7649 146.776C77.2736 146.776 77.7216 146.858 78.1089 147.021C78.4962 147.184 78.8416 147.415 79.1449 147.714L78.7809 148.218ZM81.8611 147.791C82.1598 147.488 82.4888 147.243 82.8481 147.056C83.2121 146.869 83.6298 146.776 84.1011 146.776C84.4931 146.776 84.8361 146.841 85.1301 146.972C85.4288 147.103 85.6784 147.287 85.8791 147.525C86.0798 147.758 86.2314 148.041 86.3341 148.372C86.4368 148.703 86.4881 149.07 86.4881 149.471V154H85.1161V149.471C85.1161 148.962 84.9994 148.568 84.7661 148.288C84.5328 148.003 84.1758 147.861 83.6951 147.861C83.3451 147.861 83.0161 147.945 82.7081 148.113C82.4048 148.276 82.1224 148.5 81.8611 148.785V154H80.4961V143.668H81.8611V147.791Z" fill="white"/>
</svg>
